<mxfile host="Electron" agent="Mozilla/5.0 (Windows NT 10.0; Win64; x64) AppleWebKit/537.36 (KHTML, like Gecko) draw.io/27.0.9 Chrome/134.0.6998.205 Electron/35.4.0 Safari/537.36" version="27.0.9">
  <diagram name="페이지-1" id="bJlnaBFxaEwflzppXlNO">
    <mxGraphModel dx="1042" dy="722" grid="1" gridSize="10" guides="1" tooltips="1" connect="1" arrows="1" fold="1" page="1" pageScale="1" pageWidth="827" pageHeight="1169" math="0" shadow="0">
      <root>
        <mxCell id="0" />
        <mxCell id="1" parent="0" />
        <mxCell id="CTlP49RepQ4Rl37nQ55g-4" value="" style="edgeStyle=orthogonalEdgeStyle;rounded=0;orthogonalLoop=1;jettySize=auto;html=1;" edge="1" parent="1" source="CTlP49RepQ4Rl37nQ55g-1" target="CTlP49RepQ4Rl37nQ55g-3">
          <mxGeometry relative="1" as="geometry" />
        </mxCell>
        <mxCell id="CTlP49RepQ4Rl37nQ55g-1" value="룰렛 재생" style="ellipse;whiteSpace=wrap;html=1;aspect=fixed;" vertex="1" parent="1">
          <mxGeometry x="240" y="40" width="80" height="80" as="geometry" />
        </mxCell>
        <mxCell id="CTlP49RepQ4Rl37nQ55g-2" value="1. 가위-바위-보 가 순서대로 돌아간다.&lt;div&gt;2. 가위/바위/보 버튼 중 하나를 클릭한다.&lt;/div&gt;&lt;div&gt;3. 버튼 클릭 시 돌아간 룰렛이 멈춘다.&lt;/div&gt;&lt;div&gt;4. 버튼으로 선택한 값과 룰렛 값을 비교해 점수를 매긴다.&lt;/div&gt;" style="text;html=1;align=left;verticalAlign=middle;whiteSpace=wrap;rounded=0;" vertex="1" parent="1">
          <mxGeometry x="40" y="40" width="160" height="140" as="geometry" />
        </mxCell>
        <mxCell id="CTlP49RepQ4Rl37nQ55g-6" value="" style="edgeStyle=orthogonalEdgeStyle;rounded=0;orthogonalLoop=1;jettySize=auto;html=1;" edge="1" parent="1" source="CTlP49RepQ4Rl37nQ55g-3" target="CTlP49RepQ4Rl37nQ55g-5">
          <mxGeometry relative="1" as="geometry" />
        </mxCell>
        <mxCell id="CTlP49RepQ4Rl37nQ55g-3" value="버튼 클릭" style="ellipse;whiteSpace=wrap;html=1;aspect=fixed;" vertex="1" parent="1">
          <mxGeometry x="240" y="200" width="80" height="80" as="geometry" />
        </mxCell>
        <mxCell id="CTlP49RepQ4Rl37nQ55g-8" value="" style="edgeStyle=orthogonalEdgeStyle;rounded=0;orthogonalLoop=1;jettySize=auto;html=1;" edge="1" parent="1" source="CTlP49RepQ4Rl37nQ55g-5" target="CTlP49RepQ4Rl37nQ55g-7">
          <mxGeometry relative="1" as="geometry" />
        </mxCell>
        <mxCell id="CTlP49RepQ4Rl37nQ55g-10" value="" style="edgeStyle=orthogonalEdgeStyle;rounded=0;orthogonalLoop=1;jettySize=auto;html=1;" edge="1" parent="1" source="CTlP49RepQ4Rl37nQ55g-5" target="CTlP49RepQ4Rl37nQ55g-9">
          <mxGeometry relative="1" as="geometry" />
        </mxCell>
        <mxCell id="CTlP49RepQ4Rl37nQ55g-12" value="" style="edgeStyle=orthogonalEdgeStyle;rounded=0;orthogonalLoop=1;jettySize=auto;html=1;" edge="1" parent="1" source="CTlP49RepQ4Rl37nQ55g-5" target="CTlP49RepQ4Rl37nQ55g-11">
          <mxGeometry relative="1" as="geometry" />
        </mxCell>
        <mxCell id="CTlP49RepQ4Rl37nQ55g-5" value="가위/바위/보?" style="rhombus;whiteSpace=wrap;html=1;" vertex="1" parent="1">
          <mxGeometry x="240" y="360" width="80" height="80" as="geometry" />
        </mxCell>
        <mxCell id="CTlP49RepQ4Rl37nQ55g-7" value="가위 : -1" style="ellipse;whiteSpace=wrap;html=1;" vertex="1" parent="1">
          <mxGeometry x="80" y="360" width="80" height="80" as="geometry" />
        </mxCell>
        <mxCell id="CTlP49RepQ4Rl37nQ55g-9" value="바위 : 0" style="ellipse;whiteSpace=wrap;html=1;" vertex="1" parent="1">
          <mxGeometry x="240" y="520" width="80" height="80" as="geometry" />
        </mxCell>
        <mxCell id="CTlP49RepQ4Rl37nQ55g-11" value="보 : 1" style="ellipse;whiteSpace=wrap;html=1;" vertex="1" parent="1">
          <mxGeometry x="400" y="360" width="80" height="80" as="geometry" />
        </mxCell>
        <mxCell id="CTlP49RepQ4Rl37nQ55g-15" value="" style="edgeStyle=orthogonalEdgeStyle;rounded=0;orthogonalLoop=1;jettySize=auto;html=1;" edge="1" parent="1" source="CTlP49RepQ4Rl37nQ55g-13" target="CTlP49RepQ4Rl37nQ55g-14">
          <mxGeometry relative="1" as="geometry" />
        </mxCell>
        <mxCell id="CTlP49RepQ4Rl37nQ55g-13" value="버튼 - 룰렛" style="ellipse;whiteSpace=wrap;html=1;aspect=fixed;" vertex="1" parent="1">
          <mxGeometry x="630" y="40" width="80" height="80" as="geometry" />
        </mxCell>
        <mxCell id="CTlP49RepQ4Rl37nQ55g-17" value="예" style="edgeStyle=orthogonalEdgeStyle;rounded=0;orthogonalLoop=1;jettySize=auto;html=1;" edge="1" parent="1" source="CTlP49RepQ4Rl37nQ55g-14" target="CTlP49RepQ4Rl37nQ55g-16">
          <mxGeometry relative="1" as="geometry" />
        </mxCell>
        <mxCell id="CTlP49RepQ4Rl37nQ55g-19" value="아니오,&lt;div&gt;2 or -1&lt;/div&gt;" style="edgeStyle=orthogonalEdgeStyle;rounded=0;orthogonalLoop=1;jettySize=auto;html=1;" edge="1" parent="1" source="CTlP49RepQ4Rl37nQ55g-14" target="CTlP49RepQ4Rl37nQ55g-18">
          <mxGeometry relative="1" as="geometry" />
        </mxCell>
        <mxCell id="CTlP49RepQ4Rl37nQ55g-14" value="-2 or 1?" style="rhombus;whiteSpace=wrap;html=1;" vertex="1" parent="1">
          <mxGeometry x="630" y="200" width="80" height="80" as="geometry" />
        </mxCell>
        <mxCell id="CTlP49RepQ4Rl37nQ55g-16" value="승리, 점수 + 1" style="ellipse;whiteSpace=wrap;html=1;" vertex="1" parent="1">
          <mxGeometry x="630" y="360" width="80" height="80" as="geometry" />
        </mxCell>
        <mxCell id="CTlP49RepQ4Rl37nQ55g-18" value="패배, 점수 - 1" style="ellipse;whiteSpace=wrap;html=1;" vertex="1" parent="1">
          <mxGeometry x="790" y="200" width="80" height="80" as="geometry" />
        </mxCell>
        <mxCell id="CTlP49RepQ4Rl37nQ55g-20" value="그 외, 무승부" style="rounded=0;whiteSpace=wrap;html=1;" vertex="1" parent="1">
          <mxGeometry x="760" y="320" width="120" height="60" as="geometry" />
        </mxCell>
      </root>
    </mxGraphModel>
  </diagram>
</mxfile>
